<svg width="70" height="70" viewBox="0 0 70 70" fill="none" xmlns="http://www.w3.org/2000/svg">
    <circle cx="34.2116" cy="34.2116" r="34.2116"
        transform="matrix(-0.999924 -0.0123553 -0.0123553 0.999924 69.6875 1.27344)" fill="#C4618D" />
    <path
        d="M23.6562 35.4519C23.6562 35.9932 24.0585 36.4405 24.5803 36.5113L24.7254 36.521H46.1076C46.6981 36.521 47.1767 36.0424 47.1767 35.4519C47.1767 34.9107 46.7745 34.4634 46.2527 34.3926L46.1076 34.3828H24.7254C24.1349 34.3828 23.6562 34.8615 23.6562 35.4519Z"
        fill="#FBFAFA" />
    <path
        d="M36.7249 43.284C36.3065 43.7006 36.3051 44.3776 36.7217 44.796C37.1004 45.1764 37.6943 45.2121 38.1135 44.9025L38.2336 44.7992L46.8578 36.2121C47.2393 35.8323 47.274 35.2362 46.9619 34.817L46.8579 34.697L38.2337 26.1084C37.8153 25.6918 37.1384 25.6932 36.7217 26.1116C36.343 26.4919 36.3097 27.0859 36.6211 27.5038L36.7249 27.6235L44.5879 35.4549L36.7249 43.284Z"
        fill="#FBFAFA" />
</svg>